# xmcd
#
# Track frame offsets:
#	150
#	14222
#	26493
#	41448
#	53525
#	67424
#	76535
#	89566
#	104245
#	117364
#	130982
#	144053
#	158147
#	171467
#	186082
#	200415
#	214183
#	226245
#
# Disc length: 3198 seconds
#
# Revision: 5
# Processed by: cddbd v1.5.2PL0 Copyright (c) Steve Scherf et al.
# Submitted via: CDex 1.40Beta5
#
DISCID=000c7c12
DTITLE=Blues Connection (Vol. 1) - How Long, How Long Blues [CD1]
DYEAR=1900
DGENRE=Blues
TTITLE0=Leroy Carr How - How Long, How Long Blues
TTITLE1=Memphis Slim - Old Taylor
TTITLE2=Meade Lux Lewis - Whistling Blues
TTITLE3=Kansas City Kitty and Georgia - Tom, How Can You Have the Blues?
TTITLE4=Berha 'chippy Hill' - Some Cold Rainy Day
TTITLE5=Muddy Waters - You Got to Take Sick and Die Some of These Days... (Library of Congres)
TTITLE6=Big Maceo With Tampa Red on Guitar - Worried Life Blues
TTITLE7=Arthur 'big Boy' Crudup - Who's Been Fooling You
TTITLE8=Doctor Clayton - Angels in Harlem
TTITLE9=Lil Johnson - Keep on Knocking
TTITLE10=Memphis Minnie - Hustlin' Woman Blues
TTITLE11=Washboard Sam With Big Bill Broonzy on Guitar - Back Door
TTITLE12=Lil Green - Why Don't You Do Right
TTITLE13=Sonny Boy Williamson - Sloppy Drunk Blues
TTITLE14=Violet Green and Lonnie Johnson - You Had Too Much
TTITLE15=Victoria Spivey - Dope Head Blues
TTITLE16=Bo Carter - Some Day
TTITLE17=Sleepy John Estes - Drop Down Baby
EXTD=ID3G:   0
EXTT0=
EXTT1=
EXTT2=
EXTT3=
EXTT4=
EXTT5=
EXTT6=
EXTT7=
EXTT8=
EXTT9=
EXTT10=
EXTT11=
EXTT12=
EXTT13=
EXTT14=
EXTT15=
EXTT16=
EXTT17=
PLAYORDER=
